<svg width="78" height="31" viewBox="0 0 78 31" fill="none" xmlns="http://www.w3.org/2000/svg">
<path d="M41.202 10.088C41.202 10.48 41.132 10.8533 40.992 11.208C40.852 11.5627 40.6607 11.8707 40.418 12.132C40.1753 12.3933 39.8907 12.6033 39.564 12.762C39.2373 12.9113 38.8827 12.986 38.5 12.986C38.136 12.986 37.7767 12.9393 37.422 12.846C37.0673 12.7433 36.75 12.6313 36.47 12.51C36.1433 12.37 35.8353 12.2113 35.546 12.034L35.882 11.11C36.2087 11.278 36.526 11.4227 36.834 11.544C37.1047 11.656 37.3893 11.7587 37.688 11.852C37.9867 11.936 38.2527 11.978 38.486 11.978C38.7287 11.978 38.9573 11.9313 39.172 11.838C39.3867 11.7353 39.5687 11.6 39.718 11.432C39.8767 11.264 39.998 11.068 40.082 10.844C40.1753 10.62 40.222 10.3773 40.222 10.116C40.222 9.85467 40.1613 9.63533 40.04 9.458C39.9187 9.28067 39.76 9.136 39.564 9.024C39.3773 8.90267 39.1673 8.80933 38.934 8.744C38.71 8.67867 38.4907 8.62733 38.276 8.59C37.9213 8.534 37.59 8.436 37.282 8.296C36.974 8.14667 36.7033 7.96 36.47 7.736C36.246 7.512 36.064 7.25067 35.924 6.952C35.7933 6.644 35.728 6.29867 35.728 5.916C35.728 5.524 35.798 5.15533 35.938 4.81C36.078 4.46467 36.2693 4.166 36.512 3.914C36.7547 3.65267 37.0347 3.44733 37.352 3.298C37.6787 3.13933 38.024 3.06 38.388 3.06C38.612 3.06 38.8453 3.088 39.088 3.144C39.3307 3.19067 39.5593 3.24667 39.774 3.312C40.0167 3.38667 40.2593 3.47067 40.502 3.564L40.194 4.516C39.9793 4.432 39.7647 4.35733 39.55 4.292C39.3633 4.236 39.1627 4.18467 38.948 4.138C38.7427 4.082 38.5467 4.054 38.36 4.054C38.1267 4.054 37.9073 4.10533 37.702 4.208C37.4967 4.31067 37.3193 4.446 37.17 4.614C37.0207 4.782 36.904 4.978 36.82 5.202C36.736 5.41667 36.694 5.64067 36.694 5.874C36.694 6.14467 36.75 6.38267 36.862 6.588C36.974 6.784 37.114 6.952 37.282 7.092C37.4593 7.232 37.6507 7.344 37.856 7.428C38.0613 7.512 38.2573 7.57267 38.444 7.61C38.8267 7.67533 39.186 7.76867 39.522 7.89C39.858 8.01133 40.1473 8.17 40.39 8.366C40.642 8.562 40.838 8.8 40.978 9.08C41.1273 9.36 41.202 9.696 41.202 10.088ZM46.9672 5.72C46.9672 5.37467 46.9018 5.09933 46.7712 4.894C46.6405 4.67933 46.4772 4.516 46.2812 4.404C46.0945 4.28267 45.8985 4.20333 45.6932 4.166C45.4878 4.12867 45.3152 4.11 45.1752 4.11C45.0352 4.11 44.8625 4.13333 44.6572 4.18C44.4518 4.21733 44.2558 4.29667 44.0692 4.418C43.8825 4.53 43.7192 4.69333 43.5792 4.908C43.4485 5.11333 43.3832 5.38867 43.3832 5.734V10.55C43.3832 10.9047 43.4485 11.1847 43.5792 11.39C43.7192 11.586 43.8825 11.74 44.0692 11.852C44.2558 11.9547 44.4518 12.02 44.6572 12.048C44.8625 12.076 45.0352 12.09 45.1752 12.09C45.3152 12.09 45.4878 12.076 45.6932 12.048C45.8985 12.0107 46.0945 11.9407 46.2812 11.838C46.4772 11.726 46.6405 11.572 46.7712 11.376C46.9018 11.1707 46.9672 10.8953 46.9672 10.55V5.72ZM47.9052 10.55C47.9052 10.7553 47.8632 11.0073 47.7792 11.306C47.7045 11.5953 47.5598 11.8753 47.3452 12.146C47.1398 12.4167 46.8598 12.65 46.5052 12.846C46.1505 13.0327 45.7025 13.126 45.1612 13.126C44.6292 13.126 44.1905 13.0327 43.8452 12.846C43.4998 12.65 43.2198 12.4167 43.0052 12.146C42.7998 11.8753 42.6552 11.5953 42.5712 11.306C42.4872 11.0073 42.4452 10.7553 42.4452 10.55V5.734C42.4452 5.52867 42.4825 5.27667 42.5572 4.978C42.6412 4.67 42.7858 4.376 42.9912 4.096C43.1965 3.816 43.4765 3.578 43.8312 3.382C44.1858 3.17667 44.6338 3.074 45.1752 3.074C45.7072 3.074 46.1458 3.172 46.4912 3.368C46.8458 3.564 47.1258 3.802 47.3312 4.082C47.5458 4.362 47.6952 4.656 47.7792 4.964C47.8632 5.26267 47.9052 5.51467 47.9052 5.72V10.55ZM39.284 23.164L41.104 17.2H42.462V27H41.538V19.006H41.524L39.914 24.172H38.584L36.988 19.034V27H36.064V17.2H37.436L39.228 23.164H39.284ZM47.5073 23.598C47.5073 23.5887 47.4653 23.5653 47.3813 23.528C47.3066 23.4813 47.2039 23.4347 47.0733 23.388C46.9426 23.3413 46.7886 23.2993 46.6113 23.262C46.4339 23.2247 46.2473 23.206 46.0513 23.206C45.7619 23.206 45.5146 23.3133 45.3093 23.528C45.1133 23.7427 45.0153 23.9947 45.0153 24.284V25.152C45.0153 25.4507 45.1133 25.7073 45.3093 25.922C45.5146 26.1273 45.7573 26.23 46.0373 26.23C46.1399 26.23 46.2753 26.2067 46.4433 26.16C46.6113 26.1133 46.7746 26.062 46.9333 26.006C47.1106 25.9407 47.3019 25.8613 47.5073 25.768V23.598ZM48.3893 26.202L48.6973 26.482L48.0673 27.112L47.6893 26.734C47.3999 26.874 47.0966 26.9767 46.7793 27.042C46.4619 27.1073 46.2193 27.14 46.0513 27.14C45.7806 27.14 45.5286 27.0887 45.2953 26.986C45.0619 26.874 44.8613 26.7247 44.6933 26.538C44.5253 26.3513 44.3899 26.1367 44.2873 25.894C44.1939 25.642 44.1473 25.376 44.1473 25.096V24.326C44.1473 24.0553 44.1939 23.7987 44.2873 23.556C44.3899 23.3133 44.5253 23.1033 44.6933 22.926C44.8613 22.7393 45.0619 22.5947 45.2953 22.492C45.5286 22.38 45.7806 22.324 46.0513 22.324C46.1073 22.324 46.1913 22.3287 46.3033 22.338C46.4246 22.338 46.5553 22.352 46.6953 22.38C46.8353 22.3987 46.9753 22.4313 47.1153 22.478C47.2646 22.5153 47.3999 22.5667 47.5213 22.632V22.338C47.5213 22.142 47.4839 21.946 47.4093 21.75C47.3439 21.554 47.2506 21.3813 47.1292 21.232C47.0079 21.0827 46.8633 20.9613 46.6953 20.868C46.5366 20.7747 46.3686 20.728 46.1913 20.728C46.1259 20.728 45.9953 20.7513 45.7993 20.798C45.6126 20.8447 45.4119 20.8913 45.1973 20.938C44.9546 21.0033 44.6839 21.0733 44.3853 21.148L44.1473 20.308C44.4553 20.224 44.7446 20.1493 45.0153 20.084C45.2486 20.028 45.4773 19.9767 45.7013 19.93C45.9253 19.8833 46.0886 19.86 46.1913 19.86C46.4899 19.86 46.7699 19.93 47.0312 20.07C47.3019 20.21 47.5353 20.3967 47.7313 20.63C47.9273 20.8633 48.0813 21.1293 48.1933 21.428C48.3146 21.7173 48.3753 22.0207 48.3753 22.338L48.3893 26.202ZM54.1897 21.05C54.3017 21.2927 54.3671 21.5307 54.3857 21.764C54.4044 21.9973 54.4137 22.24 54.4137 22.492V27H53.5037V22.072C53.5037 21.6427 53.3871 21.316 53.1537 21.092C52.9297 20.8587 52.6777 20.742 52.3977 20.742C52.2391 20.742 52.0337 20.7653 51.7817 20.812C51.5391 20.8493 51.2544 20.9753 50.9277 21.19V27H50.0457V20.798L49.7097 20.476L50.3257 19.846L50.7597 20.266C51.2451 20.0047 51.7117 19.874 52.1597 19.874C52.5797 19.874 52.9764 19.9627 53.3497 20.14C53.7231 20.3173 54.0031 20.6207 54.1897 21.05ZM59.183 23.598C59.183 23.5887 59.141 23.5653 59.057 23.528C58.9824 23.4813 58.8797 23.4347 58.749 23.388C58.6184 23.3413 58.4644 23.2993 58.287 23.262C58.1097 23.2247 57.923 23.206 57.727 23.206C57.4377 23.206 57.1904 23.3133 56.985 23.528C56.789 23.7427 56.691 23.9947 56.691 24.284V25.152C56.691 25.4507 56.789 25.7073 56.985 25.922C57.1904 26.1273 57.433 26.23 57.713 26.23C57.8157 26.23 57.951 26.2067 58.119 26.16C58.287 26.1133 58.4504 26.062 58.609 26.006C58.7864 25.9407 58.9777 25.8613 59.183 25.768V23.598ZM60.065 26.202L60.373 26.482L59.743 27.112L59.365 26.734C59.0757 26.874 58.7724 26.9767 58.455 27.042C58.1377 27.1073 57.895 27.14 57.727 27.14C57.4564 27.14 57.2044 27.0887 56.971 26.986C56.7377 26.874 56.537 26.7247 56.369 26.538C56.201 26.3513 56.0657 26.1367 55.963 25.894C55.8697 25.642 55.823 25.376 55.823 25.096V24.326C55.823 24.0553 55.8697 23.7987 55.963 23.556C56.0657 23.3133 56.201 23.1033 56.369 22.926C56.537 22.7393 56.7377 22.5947 56.971 22.492C57.2044 22.38 57.4564 22.324 57.727 22.324C57.783 22.324 57.867 22.3287 57.979 22.338C58.1004 22.338 58.231 22.352 58.371 22.38C58.511 22.3987 58.651 22.4313 58.791 22.478C58.9404 22.5153 59.0757 22.5667 59.197 22.632V22.338C59.197 22.142 59.1597 21.946 59.085 21.75C59.0197 21.554 58.9264 21.3813 58.805 21.232C58.6837 21.0827 58.539 20.9613 58.371 20.868C58.2124 20.7747 58.0444 20.728 57.867 20.728C57.8017 20.728 57.671 20.7513 57.475 20.798C57.2884 20.8447 57.0877 20.8913 56.873 20.938C56.6304 21.0033 56.3597 21.0733 56.061 21.148L55.823 20.308C56.131 20.224 56.4204 20.1493 56.691 20.084C56.9244 20.028 57.153 19.9767 57.377 19.93C57.601 19.8833 57.7644 19.86 57.867 19.86C58.1657 19.86 58.4457 19.93 58.707 20.07C58.9777 20.21 59.211 20.3967 59.407 20.63C59.603 20.8633 59.757 21.1293 59.869 21.428C59.9904 21.7173 60.051 22.0207 60.051 22.338L60.065 26.202ZM64.9695 21.176C64.6148 20.9893 64.3208 20.8727 64.0875 20.826C63.8542 20.7793 63.6582 20.756 63.4995 20.756C63.2195 20.756 62.9768 20.8633 62.7715 21.078C62.5755 21.2833 62.4775 21.5307 62.4775 21.82V25.152C62.4775 25.4507 62.5755 25.7073 62.7715 25.922C62.9768 26.1367 63.2242 26.244 63.5135 26.244C63.5882 26.244 63.6628 26.244 63.7375 26.244C63.8122 26.2347 63.9008 26.216 64.0035 26.188C64.1155 26.16 64.2462 26.118 64.3955 26.062C64.5542 26.006 64.7455 25.922 64.9695 25.81V21.176ZM65.8515 28.498C65.8515 28.8527 65.7908 29.156 65.6695 29.408C65.5575 29.6693 65.3988 29.8793 65.1935 30.038C64.9882 30.206 64.7502 30.3273 64.4795 30.402C64.2182 30.486 63.9335 30.528 63.6255 30.528C63.4762 30.528 63.2848 30.5047 63.0515 30.458C62.8182 30.4113 62.5942 30.36 62.3795 30.304C62.1182 30.2387 61.8475 30.1593 61.5675 30.066L61.8195 29.24C62.0902 29.324 62.3468 29.3987 62.5895 29.464C62.7948 29.52 62.9955 29.5713 63.1915 29.618C63.3875 29.6647 63.5322 29.688 63.6255 29.688C63.9895 29.688 64.3068 29.59 64.5775 29.394C64.8482 29.198 64.9835 28.904 64.9835 28.512V26.832C64.6848 26.9813 64.4282 27.0653 64.2135 27.084C63.9988 27.112 63.8122 27.126 63.6535 27.126H63.5135C63.2428 27.126 62.9908 27.0747 62.7575 26.972C62.5335 26.86 62.3328 26.7153 62.1555 26.538C61.9782 26.3513 61.8382 26.1367 61.7355 25.894C61.6422 25.6513 61.5955 25.39 61.5955 25.11V21.876C61.5955 21.596 61.6422 21.3347 61.7355 21.092C61.8382 20.8493 61.9782 20.6393 62.1555 20.462C62.3328 20.2753 62.5335 20.1307 62.7575 20.028C62.9908 19.916 63.2428 19.86 63.5135 19.86C63.7188 19.86 63.9568 19.8927 64.2275 19.958C64.5075 20.0233 64.8062 20.1213 65.1235 20.252L65.5575 19.818L66.1875 20.448L65.8515 20.77V28.498ZM69.8968 23.528C70.1861 23.528 70.4288 23.416 70.6248 23.192C70.8301 22.9587 70.9328 22.6927 70.9328 22.394V21.82C70.9328 21.624 70.8954 21.4607 70.8208 21.33C70.7461 21.19 70.6434 21.078 70.5128 20.994C70.3914 20.91 70.2468 20.8493 70.0788 20.812C69.9108 20.7747 69.7381 20.756 69.5608 20.756C69.2434 20.756 68.9634 20.854 68.7208 21.05C68.4781 21.2367 68.3568 21.4933 68.3568 21.82V23.514L69.8968 23.528ZM67.4468 21.89C67.4468 21.61 67.4981 21.3487 67.6008 21.106C67.7034 20.854 67.8434 20.6393 68.0208 20.462C68.1981 20.2753 68.4034 20.1307 68.6368 20.028C68.8794 19.916 69.1361 19.86 69.4068 19.86H69.8688C70.1394 19.86 70.3914 19.9113 70.6248 20.014C70.8674 20.1167 71.0774 20.2613 71.2548 20.448C71.4321 20.6253 71.5721 20.84 71.6748 21.092C71.7774 21.3347 71.8288 21.6007 71.8288 21.89V22.338C71.8288 22.7393 71.7588 23.0753 71.6188 23.346C71.4788 23.6167 71.2828 23.836 71.0308 24.004C70.7881 24.172 70.5034 24.2933 70.1768 24.368C69.8501 24.4427 69.5048 24.48 69.1408 24.48C68.8794 24.48 68.6181 24.466 68.3568 24.438V25.138C68.4221 25.4647 68.5808 25.7307 68.8328 25.936C69.0941 26.1413 69.3881 26.244 69.7148 26.244C69.7334 26.244 69.8408 26.2253 70.0368 26.188C70.2421 26.1413 70.4614 26.09 70.6948 26.034C70.9654 25.978 71.2641 25.908 71.5908 25.824L71.8148 26.748C71.4601 26.8227 71.1334 26.888 70.8347 26.944C70.5828 26.9907 70.3448 27.0327 70.1208 27.07C69.8968 27.1073 69.7614 27.126 69.7148 27.126C69.4068 27.126 69.1128 27.07 68.8328 26.958C68.5621 26.846 68.3241 26.692 68.1188 26.496C67.9134 26.3 67.7501 26.0667 67.6288 25.796C67.5074 25.5253 67.4468 25.2267 67.4468 24.9V21.89ZM76.5496 21.218C76.3816 21.1153 76.2416 21.036 76.1296 20.98C76.0269 20.9147 75.9336 20.868 75.8496 20.84C75.7656 20.812 75.6863 20.798 75.6116 20.798C75.5369 20.7887 75.4576 20.784 75.3736 20.784C75.2429 20.784 75.0703 20.8213 74.8556 20.896C74.6409 20.9613 74.4216 21.092 74.1976 21.288V26.986H73.3296V20.91C73.2736 20.854 73.2036 20.7887 73.1196 20.714C73.0356 20.6393 72.9703 20.574 72.9236 20.518L73.5396 19.888L74.0156 20.35C74.2863 20.1353 74.5383 20 74.7716 19.944C75.0143 19.888 75.2243 19.86 75.4016 19.86C75.5883 19.86 75.7983 19.902 76.0316 19.986C76.2649 20.07 76.6009 20.2333 77.0396 20.476L76.5496 21.218Z" fill="#22B7B2"/>
<path d="M5.82751 13.464H18.5715V14.904H5.82751V13.464ZM5.82751 19.8H13.6275V21.24H5.82751V19.8Z" fill="#22B7B2"/>
<path d="M21.3795 29.04H2.9955C2.6115 29.04 2.2515 28.968 1.8915 28.824C1.5555 28.68 1.2435 28.488 1.0035 28.224C0.7395 27.96 0.5475 27.672 0.4035 27.336C0.2595 26.976 0.1875 26.616 0.1875 26.232V7.10397C0.1875 6.71997 0.2595 6.35997 0.4035 5.99997C0.5475 5.66397 0.7395 5.35197 1.0035 5.11197C1.2675 4.84797 1.5555 4.65597 1.8915 4.51197C2.2515 4.36797 2.6115 4.29597 2.9955 4.29597H5.7795V5.71197H2.9955C2.2275 5.71197 1.5795 6.33597 1.5795 7.12797V26.256C1.5795 27.024 2.2035 27.672 2.9955 27.672H21.3555C22.1235 27.672 22.7715 27.048 22.7715 26.256V7.10397C22.7715 6.33597 22.1475 5.68797 21.3555 5.68797H18.5955V4.27197H21.3795C21.7635 4.27197 22.1235 4.34397 22.4835 4.48797C22.8195 4.63197 23.1315 4.82397 23.3715 5.08797C23.6355 5.35197 23.8275 5.63997 23.9715 5.97597C24.1155 6.33597 24.1875 6.69597 24.1875 7.07997V26.208C24.1875 26.592 24.1155 26.952 23.9715 27.312C23.8275 27.648 23.6355 27.96 23.3715 28.2C23.1075 28.464 22.8195 28.656 22.4835 28.8C22.1235 28.968 21.7635 29.04 21.3795 29.04Z" fill="#22B7B2"/>
<path d="M19.2435 8.52H5.1315V3.912C5.1315 2.928 5.9235 2.136 6.9075 2.136H8.7315C9.3795 0.84 10.7235 0 12.2115 0C13.6995 0 15.0435 0.84 15.6915 2.136H17.5155C18.4995 2.136 19.2915 2.928 19.2915 3.912L19.2435 8.52ZM6.5475 7.104H17.8515V3.912C17.8515 3.72 17.6835 3.552 17.4915 3.552H14.6835L14.5155 3.072C14.1795 2.088 13.2435 1.416 12.1875 1.416C11.1315 1.416 10.1955 2.088 9.8595 3.072L9.6915 3.552H6.8835C6.6915 3.552 6.5235 3.72 6.5235 3.912V7.104H6.5475Z" fill="#22B7B2"/>
</svg>
